<?xml version="1.0" encoding="UTF-8"?>
<svg id="Layer_1" data-name="Layer 1" xmlns="http://www.w3.org/2000/svg" viewBox="0 0 512 512">
  <defs>
    <style>
      .cls-1 {
        fill: #fff;
      }

      .cls-2 {
        fill: #333;
      }
    </style>
  </defs>
  <path class="cls-2" d="m256,0C114.62,0,0,114.62,0,256s114.62,256,256,256,256-114.61,256-256S397.38,0,256,0Zm0,128c17.67,0,32,14.33,32,32s-14.33,32-32,32-32-14.33-32-32,14.33-32,32-32Zm40,256h-80c-13.3,0-24-10.7-24-24s10.7-24,24-24h24v-64h-24c-13.3,0-24-10.7-24-24s10.7-24,24-24h48c13.3,0,24,10.7,24,24v88h8c13.3,0,24,10.7,24,24s-10.7,24-24,24Z"/>
  <circle class="cls-1" cx="256" cy="160" r="32"/>
  <path class="cls-1" d="m320,360c0,13.3-10.7,24-24,24h-80c-13.3,0-24-10.7-24-24s10.7-24,24-24h24v-64h-24c-13.3,0-24-10.7-24-24s10.7-24,24-24h48c13.3,0,24,10.7,24,24v88h8c13.3,0,24,10.7,24,24Z"/>
</svg>